<?xml version="1.0" encoding="utf-8"?>
<!-- Generator: Adobe Illustrator 18.1.0, SVG Export Plug-In . SVG Version: 6.00 Build 0)  -->
<!DOCTYPE svg PUBLIC "-//W3C//DTD SVG 1.1//EN" "http://www.w3.org/Graphics/SVG/1.1/DTD/svg11.dtd">
<svg version="1.1" id="Слой_1" xmlns="http://www.w3.org/2000/svg" xmlns:xlink="http://www.w3.org/1999/xlink" x="0px" y="0px"
	 viewBox="245.9 118.6 103.9 38.5" enable-background="new 245.9 118.6 103.9 38.5" xml:space="preserve">
<g>
	<path fill="#1EB3C2" d="M304.1,147.9v9.1h-1.2v-10.3h4.6v1.2H304.1z"/>
	<path fill="#1EB3C2" d="M313.5,146.8c0.5,0,1,0.2,1.3,0.5c0.4,0.3,0.5,0.8,0.5,1.3v2.3c0,0.5-0.2,1-0.5,1.3
		c-0.4,0.4-0.8,0.5-1.3,0.5h-2.3v4.4h-1.2v-10.3H313.5z M313.5,151.5c0.4,0,0.7-0.3,0.7-0.7v-2.3c0-0.4-0.3-0.6-0.7-0.6h-2.3v3.6
		H313.5z"/>
	<path fill="#1EB3C2" d="M321.4,157.1h-1.2l0.7-2.8h-1.3c-0.3,0-0.5-0.2-0.6-0.4l-1.7-7h1.2l1.5,6.1c0,0.1,0.1,0.2,0.1,0.2h0.9
		c0,0,0.1,0,0.1-0.1l1.5-6.3h1.2L321.4,157.1z"/>
	<path fill="#1EB3C2" d="M330.7,157.1v-9.2h-3v9.2h-1.2v-10.3h5.3v10.3H330.7z"/>
	<path fill="#1EB3C2" d="M339.4,157.1v-9.2h-3v9.2h-1.2v-10.3h5.3v10.3H339.4z"/>
	<path fill="#1EB3C2" d="M344.4,157.1h-1.2l1.7-9.9c0-0.2,0.3-0.4,0.6-0.4h2c0.3,0,0.5,0.2,0.6,0.4l1.7,9.9h-1.2l-0.4-2.5h-3.4
		L344.4,157.1z M347.1,148.1c0-0.1-0.1-0.2-0.1-0.2H346c-0.1,0-0.1,0.1-0.1,0.2l-0.9,5.3h3L347.1,148.1z"/>
</g>
<g>
	<path fill="#F5F4F5" d="M305.6,118.8v8.7h3.4l4.7-8.7h2.6l-5.2,9.8v0.2l5.2,12.1h-2.6l-4.7-11h-3.4v11h-2.5v-22.2H305.6z"/>
	<path fill="#F5F4F5" d="M248.4,141.1h-2.5l3.6-21.4c0.1-0.5,0.6-0.9,1.2-0.9h4.4c0.6,0,1.1,0.5,1.2,0.9l3.6,21.4h-2.5l-0.9-5.4
		h-7.3L248.4,141.1z M254.2,121.6c-0.1-0.3-0.1-0.4-0.3-0.4h-2c-0.2,0-0.3,0.1-0.3,0.4l-1.9,11.5h6.5L254.2,121.6z"/>
	<path fill="#F5F4F5" d="M264.8,121.3v19.8h-2.5v-22.3h9.9v2.5H264.8z"/>
	<path fill="#F5F4F5" d="M281.8,118.8c1.1,0,2.1,0.4,2.9,1.1c0.8,0.7,1.2,1.6,1.2,2.7v4.9c0,1.1-0.4,2.1-1.2,2.8
		c-0.8,0.8-1.7,1.2-2.9,1.2h-5v9.6h-2.5v-22.3H281.8z M281.8,129c0.9,0,1.5-0.6,1.5-1.5v-4.9c0-0.9-0.6-1.3-1.5-1.3h-5v7.8H281.8z"
		/>
	<path fill="#F5F4F5" d="M288,122.6c0-1.1,0.4-2.1,1.2-2.9c0.8-0.8,1.7-1.2,2.9-1.2h3.6c1.1,0,2.1,0.4,2.9,1.2
		c0.8,0.8,1.2,1.7,1.2,2.9v14.7c0,1.1-0.4,2.1-1.2,2.9c-0.8,0.8-1.7,1.2-2.9,1.2h-3.6c-1.1,0-2.1-0.4-2.9-1.2
		c-0.8-0.8-1.2-1.7-1.2-2.9V122.6z M290.5,137.4c0,0.9,0.6,1.5,1.5,1.5h3.6c0.9,0,1.5-0.6,1.5-1.5v-14.7c0-0.9-0.6-1.5-1.5-1.5h-3.6
		c-0.9,0-1.5,0.6-1.5,1.5V137.4z"/>
	<path fill="#F5F4F5" d="M317.7,122.6c0-1.1,0.4-2.1,1.2-2.9c0.8-0.8,1.7-1.2,2.8-1.2h3.6c1.1,0,2.1,0.4,2.8,1.2
		c0.8,0.8,1.2,1.7,1.2,2.9v14.7c0,1.1-0.4,2.1-1.2,2.9c-0.8,0.8-1.7,1.2-2.8,1.2h-3.6c-1.1,0-2.1-0.4-2.8-1.2
		c-0.8-0.8-1.2-1.7-1.2-2.9V122.6z M320.2,137.4c0,0.9,0.6,1.5,1.5,1.5h3.6c0.9,0,1.5-0.6,1.5-1.5v-14.7c0-0.9-0.6-1.5-1.5-1.5h-3.6
		c-0.9,0-1.5,0.6-1.5,1.5V137.4z"/>
	<path fill="#F5F4F5" d="M343.7,118.8h5l0.8,22.3H347l-0.8-19.8h-0.3l-4,19.6h-2.3l-3.9-19.6h-0.3l-0.8,19.8h-2.5l0.9-22.3h4.9
		l2.9,16.2L343.7,118.8z"/>
</g>
</svg>
